<svg xmlns="http://www.w3.org/2000/svg" xmlns:xlink="http://www.w3.org/1999/xlink" contentStyleType="text/css" data-diagram-type="DESCRIPTION" height="541px" preserveAspectRatio="none" style="width:1955px;height:541px;background:#FFFFFF;" version="1.1" viewBox="0 0 1955 541" width="1955px" zoomAndPan="magnify"><title>component Design Diagram</title><defs/><g><g class="title" data-source-line="2"><text fill="#000000" font-family="sans-serif" font-size="14" font-weight="bold" lengthAdjust="spacing" textLength="219.0781" x="860.9609" y="22.9951">component Design Diagram</text></g><!--cluster Client Layer--><g class="cluster" data-entity="Client Layer" data-source-line="4" data-uid="ent0002" id="cluster_Client Layer"><rect fill="none" height="106" rx="2.5" ry="2.5" style="stroke:#181818;stroke-width:1;" width="279" x="614" y="87.4569"/><text fill="#000000" font-family="sans-serif" font-size="14" font-weight="bold" lengthAdjust="spacing" textLength="94.7939" x="706.103" y="102.452">Client Layer</text></g><!--cluster API Layer--><g class="cluster" data-entity="API Layer" data-source-line="9" data-uid="ent0005" id="cluster_API Layer"><rect fill="none" height="106" rx="2.5" ry="2.5" style="stroke:#181818;stroke-width:1;" width="250" x="1699" y="87.4569"/><text fill="#000000" font-family="sans-serif" font-size="14" font-weight="bold" lengthAdjust="spacing" textLength="75.0723" x="1786.4639" y="102.452">API Layer</text></g><!--cluster Business Layer--><g class="cluster" data-entity="Business Layer" data-source-line="14" data-uid="ent0008" id="cluster_Business Layer"><rect fill="none" height="443.5" rx="2.5" ry="2.5" style="stroke:#181818;stroke-width:1;" width="758" x="917" y="87.4569"/><text fill="#000000" font-family="sans-serif" font-size="14" font-weight="bold" lengthAdjust="spacing" textLength="118.665" x="1236.6675" y="102.452">Business Layer</text></g><!--cluster Data Layer--><g class="cluster" data-entity="Data Layer" data-source-line="21" data-uid="ent0013" id="cluster_Data Layer"><rect fill="none" height="115" rx="2.5" ry="2.5" style="stroke:#181818;stroke-width:1;" width="414" x="7" y="420.4569"/><text fill="#000000" font-family="sans-serif" font-size="14" font-weight="bold" lengthAdjust="spacing" textLength="85.9756" x="171.0122" y="435.452">Data Layer</text></g><!--cluster Integration Layer--><g class="cluster" data-entity="Integration Layer" data-source-line="27" data-uid="ent0017" id="cluster_Integration Layer"><rect fill="none" height="106" rx="2.5" ry="2.5" style="stroke:#181818;stroke-width:1;" width="448" x="445" y="424.9569"/><text fill="#000000" font-family="sans-serif" font-size="14" font-weight="bold" lengthAdjust="spacing" textLength="137.5801" x="600.21" y="439.952">Integration Layer</text></g><!--entity WEB--><g class="entity" data-entity="WEB" data-source-line="5" data-uid="ent0003" id="entity_WEB"><rect fill="#F1F1F1" height="36.2969" rx="2.5" ry="2.5" style="stroke:#181818;stroke-width:0.5;" width="112.832" x="763.5" y="141.4569"/><text fill="#000000" font-family="sans-serif" font-size="14" lengthAdjust="spacing" textLength="92.832" x="773.5" y="164.452">Web Browser</text></g><!--entity MOBILE--><g class="entity" data-entity="MOBILE" data-source-line="6" data-uid="ent0004" id="entity_MOBILE"><rect fill="#F1F1F1" height="36.2969" rx="2.5" ry="2.5" style="stroke:#181818;stroke-width:0.5;" width="97.7246" x="630" y="141.4569"/><text fill="#000000" font-family="sans-serif" font-size="14" lengthAdjust="spacing" textLength="77.7246" x="640" y="164.452">Mobile App</text></g><!--entity API--><g class="entity" data-entity="API" data-source-line="10" data-uid="ent0006" id="entity_API"><rect fill="#F1F1F1" height="36.2969" rx="2.5" ry="2.5" style="stroke:#181818;stroke-width:0.5;" width="82.6104" x="1849.5" y="141.4569"/><text fill="#000000" font-family="sans-serif" font-size="14" lengthAdjust="spacing" textLength="62.6104" x="1859.5" y="164.452">REST API</text></g><!--entity WS--><g class="entity" data-entity="WS" data-source-line="11" data-uid="ent0007" id="entity_WS"><rect fill="#F1F1F1" height="36.2969" rx="2.5" ry="2.5" style="stroke:#181818;stroke-width:0.5;" width="98.7021" x="1715.5" y="141.4569"/><text fill="#000000" font-family="sans-serif" font-size="14" lengthAdjust="spacing" textLength="78.7021" x="1725.5" y="164.452">WebSocket</text></g><!--entity AUTH--><g class="entity" data-entity="AUTH" data-source-line="15" data-uid="ent0009" id="entity_AUTH"><rect fill="#F1F1F1" height="36.2969" rx="2.5" ry="2.5" style="stroke:#181818;stroke-width:0.5;" width="122.7715" x="1219.5" y="141.4569"/><text fill="#000000" font-family="sans-serif" font-size="14" lengthAdjust="spacing" textLength="102.7715" x="1229.5" y="164.452">Authentication</text></g><!--entity TICKETS--><g class="entity" data-entity="TICKETS" data-source-line="16" data-uid="ent0010" id="entity_TICKETS"><rect fill="#F1F1F1" height="36.2969" rx="2.5" ry="2.5" style="stroke:#181818;stroke-width:0.5;" width="159.0225" x="932.5" y="256.4569"/><text fill="#000000" font-family="sans-serif" font-size="14" lengthAdjust="spacing" textLength="139.0225" x="942.5" y="279.452">Ticket Management</text></g><!--entity WORKFLOW--><g class="entity" data-entity="WORKFLOW" data-source-line="17" data-uid="ent0011" id="entity_WORKFLOW"><rect fill="#F1F1F1" height="36.2969" rx="2.5" ry="2.5" style="stroke:#181818;stroke-width:0.5;" width="137.5371" x="933" y="478.9569"/><text fill="#000000" font-family="sans-serif" font-size="14" lengthAdjust="spacing" textLength="117.5371" x="943" y="501.952">Workflow Engine</text></g><!--entity NOTIFY--><g class="entity" data-entity="NOTIFY" data-source-line="18" data-uid="ent0012" id="entity_NOTIFY"><rect fill="#F1F1F1" height="36.2969" rx="2.5" ry="2.5" style="stroke:#181818;stroke-width:0.5;" width="152.7607" x="1230.5" y="478.9569"/><text fill="#000000" font-family="sans-serif" font-size="14" lengthAdjust="spacing" textLength="132.7607" x="1240.5" y="501.952">Notification Engine</text></g><!--entity DB--><g class="entity" data-entity="DB" data-source-line="22" data-uid="ent0014" id="entity_DB"><path d="M23.5,484.4569 C23.5,474.4569 73.8765,474.4569 73.8765,474.4569 C73.8765,474.4569 124.2529,474.4569 124.2529,484.4569 L124.2529,509.7538 C124.2529,519.7538 73.8765,519.7538 73.8765,519.7538 C73.8765,519.7538 23.5,519.7538 23.5,509.7538 L23.5,484.4569" fill="#F1F1F1" style="stroke:#181818;stroke-width:0.5;"/><path d="M23.5,484.4569 C23.5,494.4569 73.8765,494.4569 73.8765,494.4569 C73.8765,494.4569 124.2529,494.4569 124.2529,484.4569" fill="none" style="stroke:#181818;stroke-width:0.5;"/><text fill="#000000" font-family="sans-serif" font-size="14" lengthAdjust="spacing" textLength="80.7529" x="33.5" y="511.452">PostgreSQL</text></g><!--entity REDIS--><g class="entity" data-entity="REDIS" data-source-line="23" data-uid="ent0015" id="entity_REDIS"><rect fill="#F1F1F1" height="36.2969" rx="2.5" ry="2.5" style="stroke:#181818;stroke-width:0.5;" width="106.3994" x="160" y="478.9569"/><text fill="#000000" font-family="sans-serif" font-size="14" lengthAdjust="spacing" textLength="86.3994" x="170" y="501.952">Redis Cache</text></g><!--entity FILES--><g class="entity" data-entity="FILES" data-source-line="24" data-uid="ent0016" id="entity_FILES"><rect fill="#F1F1F1" height="36.2969" rx="2.5" ry="2.5" style="stroke:#181818;stroke-width:0.5;" width="103.6719" x="301" y="478.9569"/><text fill="#000000" font-family="sans-serif" font-size="14" lengthAdjust="spacing" textLength="83.6719" x="311" y="501.952">File Storage</text></g><!--entity EMAIL--><g class="entity" data-entity="EMAIL" data-source-line="28" data-uid="ent0018" id="entity_EMAIL"><rect fill="#F1F1F1" height="36.2969" rx="2.5" ry="2.5" style="stroke:#181818;stroke-width:0.5;" width="115.0332" x="761.5" y="478.9569"/><text fill="#000000" font-family="sans-serif" font-size="14" lengthAdjust="spacing" textLength="95.0332" x="771.5" y="501.952">Email Service</text></g><!--entity SMS--><g class="entity" data-entity="SMS" data-source-line="29" data-uid="ent0019" id="entity_SMS"><rect fill="#F1F1F1" height="36.2969" rx="2.5" ry="2.5" style="stroke:#181818;stroke-width:0.5;" width="116.1475" x="610" y="478.9569"/><text fill="#000000" font-family="sans-serif" font-size="14" lengthAdjust="spacing" textLength="96.1475" x="620" y="501.952">SMS Gateway</text></g><!--entity MAPS--><g class="entity" data-entity="MAPS" data-source-line="30" data-uid="ent0020" id="entity_MAPS"><rect fill="#F1F1F1" height="36.2969" rx="2.5" ry="2.5" style="stroke:#181818;stroke-width:0.5;" width="113.0303" x="461.5" y="478.9569"/><text fill="#000000" font-family="sans-serif" font-size="14" lengthAdjust="spacing" textLength="93.0303" x="471.5" y="501.952">Maps Service</text></g><!--link WEB to API--><g class="link" data-entity-1="WEB" data-entity-2="API" data-source-line="34" data-uid="lnk21" id="link_WEB_API"><path d="M834.92,141.3669 C852.29,121.8569 882.98,91.9169 917,79.4569 C1015.7,43.2969 1048.38,77.1269 1153.5,76.4569 C1412.07,74.8169 1816.42,71.5369 1832,79.4569 C1857.38,92.3569 1872.0285,116.427 1881.0285,135.767" fill="none" id="WEB-to-API" style="stroke:#181818;stroke-width:1;"/><polygon fill="#181818" points="1883.56,141.2069,1883.3894,131.3595,1881.4504,136.6737,1876.1363,134.7348,1883.56,141.2069" style="stroke:#181818;stroke-width:1;"/><text fill="#000000" font-family="sans-serif" font-size="13" lengthAdjust="spacing" textLength="79.625" x="1154.5" y="67.5238">HTTP/HTTPS</text></g><!--link MOBILE to API--><g class="link" data-entity-1="MOBILE" data-entity-2="API" data-source-line="35" data-uid="lnk22" id="link_MOBILE_API"><path d="M688.13,141.1369 C698.94,121.7369 718.95,92.1869 746,79.4569 C800.59,53.7769 1778.23,52.0969 1832,79.4569 C1857.38,92.3669 1872.0173,116.4276 1881.0273,135.7776" fill="none" id="MOBILE-to-API" style="stroke:#181818;stroke-width:1;"/><polygon fill="#181818" points="1883.56,141.2169,1883.3871,131.3695,1881.4494,136.6842,1876.1348,134.7465,1883.56,141.2169" style="stroke:#181818;stroke-width:1;"/><text fill="#000000" font-family="sans-serif" font-size="13" lengthAdjust="spacing" textLength="69.8623" x="1257.5" y="67.5238">REST/JSON</text></g><!--link API to AUTH--><g class="link" data-entity-1="API" data-entity-2="AUTH" data-source-line="36" data-uid="lnk23" id="link_API_AUTH"><path d="M1883.47,141.3869 C1874.39,122.1869 1857.14,92.8169 1832,79.4569 C1803.72,64.4269 1792.02,77.1269 1760,76.4569 C1733.34,75.8969 1726.54,73.8569 1700,76.4569 C1571.4,89.0669 1429.5598,121.5074 1348.3698,141.8674" fill="none" id="API-to-AUTH" style="stroke:#181818;stroke-width:1;"/><polygon fill="#181818" points="1342.55,143.3269,1352.2527,145.0176,1347.3998,142.1107,1350.3067,137.2579,1342.55,143.3269" style="stroke:#181818;stroke-width:1;"/><text fill="#000000" font-family="sans-serif" font-size="13" lengthAdjust="spacing" textLength="58.9697" x="1701" y="67.5238">validates</text></g><!--link API to TICKETS--><g class="link" data-entity-1="API" data-entity-2="TICKETS" data-source-line="37" data-uid="lnk24" id="link_API_TICKETS"><path d="M1871.98,177.5069 C1861.07,186.2469 1846.66,196.1469 1832,201.4569 C1697.21,250.2669 1276.0678,266.6336 1097.5778,271.4936" fill="none" id="API-to-TICKETS" style="stroke:#181818;stroke-width:1;"/><polygon fill="#181818" points="1091.58,271.6569,1100.6855,275.4104,1096.5781,271.5208,1100.4678,267.4134,1091.58,271.6569" style="stroke:#181818;stroke-width:1;"/><text fill="#000000" font-family="sans-serif" font-size="13" lengthAdjust="spacing" textLength="65.0127" x="1797" y="222.5238">processes</text></g><!--link AUTH to DB--><g class="link" data-entity-1="AUTH" data-entity-2="DB" data-source-line="38" data-uid="lnk25" id="link_AUTH_DB"><path d="M1219.17,166.9869 C983,192.2069 149.01,283.6869 108,322.4569 C65.95,362.2069 66.7935,431.5166 70.4835,468.4466" fill="none" id="AUTH-to-DB" style="stroke:#181818;stroke-width:1;"/><polygon fill="#181818" points="71.08,474.4169,74.1654,465.0638,70.5829,469.4416,66.205,465.8592,71.08,474.4169" style="stroke:#181818;stroke-width:1;"/><text fill="#000000" font-family="sans-serif" font-size="13" lengthAdjust="spacing" textLength="35.1279" x="451" y="279.0238">users</text></g><!--link TICKETS to WORKFLOW--><g class="link" data-entity-1="TICKETS" data-entity-2="WORKFLOW" data-source-line="39" data-uid="lnk26" id="link_TICKETS_WORKFLOW"><path d="M987.82,292.8769 C978.88,300.7769 969.77,310.9469 965,322.4569 C942.43,376.9469 971.4394,441.7391 988.9494,473.5891" fill="none" id="TICKETS-to-WORKFLOW" style="stroke:#181818;stroke-width:1;"/><polygon fill="#181818" points="991.84,478.8469,991.0094,469.0331,989.4312,474.4654,983.9989,472.8872,991.84,478.8469" style="stroke:#181818;stroke-width:1;"/><text fill="#000000" font-family="sans-serif" font-size="13" lengthAdjust="spacing" textLength="81.7324" x="966" y="368.0238">orchestrates</text></g><!--link WORKFLOW to TICKETS--><g class="link" data-entity-1="WORKFLOW" data-entity-2="TICKETS" data-source-line="52" data-uid="lnk37" id="link_WORKFLOW_TICKETS"><path d="M1045.37,478.8769 C1111.82,452.6869 1231.3,405.4869 1232,404.4569 C1252.46,374.2969 1254.92,350.7869 1232,322.4569 C1214.35,300.6369 1153.1101,289.1881 1097.5801,282.7481" fill="none" id="WORKFLOW-to-TICKETS" style="stroke:#181818;stroke-width:1;"/><polygon fill="#181818" points="1091.62,282.0569,1100.0993,287.0671,1096.5867,282.6329,1101.0209,279.1203,1091.62,282.0569" style="stroke:#181818;stroke-width:1;"/><text fill="#000000" font-family="sans-serif" font-size="13" lengthAdjust="spacing" textLength="52.5776" x="1249" y="368.0238">updates</text></g><!--link WORKFLOW to NOTIFY--><g class="link" data-entity-1="WORKFLOW" data-entity-2="NOTIFY" data-source-line="40" data-uid="lnk27" id="link_WORKFLOW_NOTIFY"><path d="M1071.21,496.9569 C1118.58,496.9569 1175.41,496.9569 1224.3,496.9569" fill="none" id="WORKFLOW-to-NOTIFY" style="stroke:#181818;stroke-width:1;"/><polygon fill="#181818" points="1230.3,496.9569,1221.3,492.9569,1225.3,496.9569,1221.3,500.9569,1230.3,496.9569" style="stroke:#181818;stroke-width:1;"/><text fill="#000000" font-family="sans-serif" font-size="13" lengthAdjust="spacing" textLength="50.6733" x="1125.75" y="490.0238">triggers</text></g><!--link NOTIFY to EMAIL--><g class="link" data-entity-1="NOTIFY" data-entity-2="EMAIL" data-source-line="41" data-uid="lnk28" id="link_NOTIFY_EMAIL"><path d="M1301.03,478.5669 C1291.23,451.8469 1268.96,403.2769 1231,382.9569 C1215.33,374.5669 1208.75,382.0069 1191,382.9569 C1068.69,389.5169 1029.36,363.6969 917,412.4569 C882.58,427.3869 855.3229,454.2831 837.7729,474.3231" fill="none" id="NOTIFY-to-EMAIL" style="stroke:#181818;stroke-width:1;"/><polygon fill="#181818" points="833.82,478.8369,842.7586,474.7015,837.1141,475.0754,836.7402,469.4309,833.82,478.8369" style="stroke:#181818;stroke-width:1;"/><text fill="#000000" font-family="sans-serif" font-size="13" lengthAdjust="spacing" textLength="38.0352" x="1192" y="368.0238">sends</text></g><!--link NOTIFY to SMS--><g class="link" data-entity-1="NOTIFY" data-entity-2="SMS" data-source-line="42" data-uid="lnk29" id="link_NOTIFY_SMS"><path d="M1294.75,478.7469 C1275.38,451.7769 1234.82,402.3369 1186,382.9569 C1094.5,346.6469 832.39,369.1269 744,412.4569 C714.41,426.9569 694.2768,453.4131 681.6268,473.5931" fill="none" id="NOTIFY-to-SMS" style="stroke:#181818;stroke-width:1;"/><polygon fill="#181818" points="678.44,478.6769,686.6093,473.1758,681.0957,474.4404,679.831,468.9267,678.44,478.6769" style="stroke:#181818;stroke-width:1;"/><text fill="#000000" font-family="sans-serif" font-size="13" lengthAdjust="spacing" textLength="38.0352" x="1147" y="368.0238">sends</text></g><!--link TICKETS to DB--><g class="link" data-entity-1="TICKETS" data-entity-2="DB" data-source-line="43" data-uid="lnk30" id="link_TICKETS_DB"><path d="M932.47,274.9569 C730.11,274.3669 207.19,277.2769 144,322.4569 C130.95,331.7869 98.3046,424.3073 83.1846,468.6973" fill="none" id="TICKETS-to-DB" style="stroke:#181818;stroke-width:1;"/><polygon fill="#181818" points="81.25,474.3769,87.9382,467.1472,82.8621,469.6439,80.3655,464.5678,81.25,474.3769" style="stroke:#181818;stroke-width:1;"/><text fill="#000000" font-family="sans-serif" font-size="13" lengthAdjust="spacing" textLength="50.6226" x="145" y="368.0238">persists</text></g><!--link WORKFLOW to DB--><g class="link" data-entity-1="WORKFLOW" data-entity-2="DB" data-source-line="44" data-uid="lnk31" id="link_WORKFLOW_DB"><path d="M985.58,478.8269 C965.87,458.4769 930.71,426.4669 893,412.4569 C767.23,365.7469 423.51,369.7769 290,382.9569 C223.25,389.5469 199.36,377.6869 142,412.4569 C117.36,427.3869 100.9727,449.5094 89.2827,469.0294" fill="none" id="WORKFLOW-to-DB" style="stroke:#181818;stroke-width:1;"/><polygon fill="#181818" points="86.2,474.1769,94.2557,468.5107,88.7689,469.8873,87.3924,464.4005,86.2,474.1769" style="stroke:#181818;stroke-width:1;"/><text fill="#000000" font-family="sans-serif" font-size="13" lengthAdjust="spacing" textLength="32.9316" x="291" y="368.0238">state</text></g><!--link NOTIFY to DB--><g class="link" data-entity-1="NOTIFY" data-entity-2="DB" data-source-line="45" data-uid="lnk32" id="link_NOTIFY_DB"><path d="M1268.09,478.8669 C1225.14,459.6169 1153.53,429.6169 1089,412.4569 C1004.29,389.9269 981.41,389.5269 894,382.9569 C727.23,370.4169 291.34,337.1669 142,412.4569 C115.77,425.6769 99.175,448.9225 87.925,469.1625" fill="none" id="NOTIFY-to-DB" style="stroke:#181818;stroke-width:1;"/><polygon fill="#181818" points="85.01,474.4069,92.8787,468.4837,87.4391,470.0366,85.8862,464.5971,85.01,474.4069" style="stroke:#181818;stroke-width:1;"/><text fill="#000000" font-family="sans-serif" font-size="13" lengthAdjust="spacing" textLength="26.5903" x="867" y="368.0238">logs</text></g><!--link TICKETS to REDIS--><g class="link" data-entity-1="TICKETS" data-entity-2="REDIS" data-source-line="46" data-uid="lnk33" id="link_TICKETS_REDIS"><path d="M932.32,277.5569 C739.21,283.0269 260.17,298.8869 235,322.4569 C191.45,363.2369 200.5915,437.7578 207.7615,472.9278" fill="none" id="TICKETS-to-REDIS" style="stroke:#181818;stroke-width:1;"/><polygon fill="#181818" points="208.96,478.8069,211.0816,469.1892,207.9612,473.9076,203.2428,470.7873,208.96,478.8069" style="stroke:#181818;stroke-width:1;"/><text fill="#000000" font-family="sans-serif" font-size="13" lengthAdjust="spacing" textLength="45.2715" x="236" y="368.0238">caches</text></g><!--link TICKETS to FILES--><g class="link" data-entity-1="TICKETS" data-entity-2="FILES" data-source-line="47" data-uid="lnk34" id="link_TICKETS_FILES"><path d="M932.31,276.7069 C777.16,279.8369 446.16,290.2569 406,322.4569 C357.59,361.2669 352.2781,437.0869 352.4081,472.7469" fill="none" id="TICKETS-to-FILES" style="stroke:#181818;stroke-width:1;"/><polygon fill="#181818" points="352.43,478.7469,356.3972,469.7324,352.4118,473.7469,348.3972,469.7615,352.43,478.7469" style="stroke:#181818;stroke-width:1;"/><text fill="#000000" font-family="sans-serif" font-size="13" lengthAdjust="spacing" textLength="39.9395" x="407" y="368.0238">stores</text></g><!--link TICKETS to MAPS--><g class="link" data-entity-1="TICKETS" data-entity-2="MAPS" data-source-line="48" data-uid="lnk35" id="link_TICKETS_MAPS"><path d="M932.45,280.8469 C848.87,287.5469 723.72,300.8169 681,322.4569 C608.18,359.3369 553.8683,437.4816 531.4083,473.6016" fill="none" id="TICKETS-to-MAPS" style="stroke:#181818;stroke-width:1;"/><polygon fill="#181818" points="528.24,478.6969,536.3893,473.1662,530.8803,474.4508,529.5956,468.9418,528.24,478.6969" style="stroke:#181818;stroke-width:1;"/><text fill="#000000" font-family="sans-serif" font-size="13" lengthAdjust="spacing" textLength="75.7847" x="682" y="368.0238">geolocation</text></g><!--link AUTH to TICKETS--><g class="link" data-entity-1="AUTH" data-entity-2="TICKETS" data-source-line="51" data-uid="lnk36" id="link_AUTH_TICKETS"><path d="M1240.44,177.4969 C1189.8,198.7669 1109.212,232.6236 1058.422,253.9536" fill="none" id="AUTH-to-TICKETS" style="stroke:#181818;stroke-width:1;"/><polygon fill="#181818" points="1052.89,256.2769,1062.7368,256.48,1057.5,254.3409,1059.6391,249.1041,1052.89,256.2769" style="stroke:#181818;stroke-width:1;"/><text fill="#000000" font-family="sans-serif" font-size="13" lengthAdjust="spacing" textLength="69.5259" x="1163" y="222.5238">authorized</text></g><!--link TICKETS to NOTIFY--><g class="link" data-entity-1="TICKETS" data-entity-2="NOTIFY" data-source-line="53" data-uid="lnk38" id="link_TICKETS_NOTIFY"><path d="M1091.52,276.7569 C1170.08,279.9169 1282.39,290.1569 1310,322.4569 C1348.17,367.1169 1328.5073,438.7706 1315.9873,473.0706" fill="none" id="TICKETS-to-NOTIFY" style="stroke:#181818;stroke-width:1;"/><polygon fill="#181818" points="1313.93,478.7069,1320.7735,471.624,1315.6444,474.01,1313.2585,468.8809,1313.93,478.7069" style="stroke:#181818;stroke-width:1;"/><text fill="#000000" font-family="sans-serif" font-size="13" lengthAdjust="spacing" textLength="43.7988" x="1456.1748" y="335.5238">events</text><path d="M1336,344.5897 L1336,399.5897 L1620,399.5897 L1620,354.5897 L1610,344.5897 L1336,344.5897" fill="#FEFFDD" style="stroke:#181818;stroke-width:0.5;"/><path d="M1610,344.5897 L1610,354.5897 L1620,354.5897 L1610,344.5897" fill="#FEFFDD" style="stroke:#181818;stroke-width:0.5;"/><text fill="#0000FF" font-family="sans-serif" font-size="13" lengthAdjust="spacing" textLength="143.0381" x="1342" y="361.6566">All components follow</text><text fill="#000000" font-family="sans-serif" font-size="13" lengthAdjust="spacing" textLength="189.6426" x="1342" y="376.7894">single responsibility principle</text><text fill="#000000" font-family="sans-serif" font-size="13" lengthAdjust="spacing" textLength="263.1484" x="1342" y="391.9222">and are independently scalable&lt;/color&gt;</text></g><!--SRC=[TLHDR-8m5BpdLpnnsTEAUrLLuYDiiuN2agnGZoOyKWjZHxPfnQxsl-_O0PfajnV0RyOpB-yDSGUfQs75aKfph8rcxND_LaoMIozqfJZnqkDyWsdAJbQQfb9Kk9SaDoOD9ae6nboSsGxeTqAjQuCDRsbipRiBc72qISTTmi9i9LH6THtnnNASpTFaJyTXjCe-aL-dUK60urry_sEUc_B0lh7EUxBZavEQdVj4UtJoh_WXI-6bqOt3p-AnIofaqAU5qABY8qgHLsIJfxJ8UzqOUzWhyqwfhk3RzBHSFytcoqsN-Moyt5zys-pdPP7DNdfFCHLUj9zWX_DME20hutnbEVynZxUdlSclUISTJKJvsgYlqsdMQtaMLfDxO_5maJF3SlfZpBHdX28s-_z9faSX5ULitsJPwAIBKJRlal95Jj-4vtTnZXISUqaHjUk8B4QhsCiNcXYjqH0wS0aIHbyVGXZeZXwBOZKC7tdI9Ei32j4PVi-NpqauXpAMY_gRK18pP7UjNvO9gBQcH5u25BZ0fcEKJmYtIwuqLAzR1MOinkkyZOAtEZZDBi7mLbPL4BXKWCNf07AiT-rw6D6rshABJTIGaCvtJIBYFCnRAh6eJDNHYCj7lGnnw21nvL76s2uIvW-WOgDC4zQmYn07guMYaFNhf3fZ5FXZ6Ij_yQxLR8TngfiDtCpQ0-CtnC4bYJQU2PbJKX-GbFiIRTYxhJhnmqYfZ-GusXk5Ni31_xsAhpa7o4cyUQG_OwrIbxB6Muz8w1q9ooJrZciC6lVLcLmfbDWglXz6auS420N_lm00]--></g></svg>