<svg viewBox="0 0 1000 900" xmlns="http://www.w3.org/2000/svg">
  <defs>
    <style>
      .cdn-box { fill: #fff3e0; stroke: #f57c00; stroke-width: 2; }
      .lb-box { fill: #fce4ec; stroke: #c2185b; stroke-width: 2; }
      .server-box { fill: #e8f5e9; stroke: #388e3c; stroke-width: 2; }
      .storage-box { fill: #f3e5f5; stroke: #7b1fa2; stroke-width: 2; }
      .title-text { font-family: Arial, sans-serif; font-size: 16px; font-weight: bold; fill: #333; }
      .subtitle-text { font-family: Arial, sans-serif; font-size: 14px; fill: #555; }
      .small-text { font-family: Arial, sans-serif; font-size: 12px; fill: #666; }
      .line { stroke: #666; stroke-width: 2; fill: none; }
      .arrow { fill: #666; }
    </style>
    <marker id="arrowhead" markerWidth="10" markerHeight="10" refX="9" refY="3" orient="auto">
      <polygon points="0 0, 10 3, 0 6" class="arrow" />
    </marker>
  </defs>

  <text x="500" y="30" class="title-text" text-anchor="middle" style="font-size: 20px; fill: #1976d2;">SALLEHA Production Deployment Architecture</text>

  <rect x="350" y="70" width="300" height="80" class="cdn-box" rx="5"/>
  <text x="500" y="100" class="title-text" text-anchor="middle">CloudFlare</text>
  <text x="500" y="125" class="subtitle-text" text-anchor="middle">(CDN + DDoS Protection)</text>

  <line x1="500" y1="150" x2="500" y2="200" class="line" marker-end="url(#arrowhead)"/>

  <rect x="350" y="200" width="300" height="80" class="lb-box" rx="5"/>
  <text x="500" y="230" class="title-text" text-anchor="middle">Load Balancer</text>
  <text x="500" y="255" class="subtitle-text" text-anchor="middle">(Nginx)</text>

  <line x1="500" y1="280" x2="250" y2="350" class="line" marker-end="url(#arrowhead)"/>
  <line x1="500" y1="280" x2="500" y2="350" class="line" marker-end="url(#arrowhead)"/>
  <line x1="500" y1="280" x2="750" y2="350" class="line" marker-end="url(#arrowhead)"/>

  <text x="300" y="320" class="small-text" text-anchor="middle">33%</text>
  <text x="500" y="330" class="small-text" text-anchor="middle">33%</text>
  <text x="700" y="320" class="small-text" text-anchor="middle">33%</text>

  <rect x="100" y="350" width="200" height="100" class="server-box" rx="5"/>
  <text x="200" y="380" class="title-text" text-anchor="middle">API Server 1</text>
  <text x="200" y="405" class="subtitle-text" text-anchor="middle">(Node.js)</text>
  <text x="200" y="430" class="small-text" text-anchor="middle">Express.js Framework</text>

  <rect x="400" y="350" width="200" height="100" class="server-box" rx="5"/>
  <text x="500" y="380" class="title-text" text-anchor="middle">API Server 2</text>
  <text x="500" y="405" class="subtitle-text" text-anchor="middle">(Node.js)</text>
  <text x="500" y="430" class="small-text" text-anchor="middle">Express.js Framework</text>

  <rect x="700" y="350" width="200" height="100" class="server-box" rx="5"/>
  <text x="800" y="380" class="title-text" text-anchor="middle">API Server 3</text>
  <text x="800" y="405" class="subtitle-text" text-anchor="middle">(Node.js)</text>
  <text x="800" y="430" class="small-text" text-anchor="middle">Express.js Framework</text>

  <line x1="200" y1="450" x2="300" y2="530" class="line" marker-end="url(#arrowhead)"/>
  <line x1="500" y1="450" x2="500" y2="530" class="line" marker-end="url(#arrowhead)"/>
  <line x1="800" y1="450" x2="700" y2="530" class="line" marker-end="url(#arrowhead)"/>

  <line x1="500" y1="550" x2="250" y2="630" class="line" marker-end="url(#arrowhead)"/>
  <line x1="500" y1="550" x2="500" y2="630" class="line" marker-end="url(#arrowhead)"/>
  <line x1="500" y1="550" x2="750" y2="630" class="line" marker-end="url(#arrowhead)"/>

  <rect x="100" y="630" width="200" height="120" class="storage-box" rx="5"/>
  <text x="200" y="660" class="title-text" text-anchor="middle">MySQL</text>
  <text x="200" y="685" class="subtitle-text" text-anchor="middle">(Amazon RDS)</text>
  <text x="200" y="710" class="small-text" text-anchor="middle">Primary Database</text>
  <text x="200" y="730" class="small-text" text-anchor="middle">Automated Backups</text>

  <rect x="400" y="630" width="200" height="120" class="storage-box" rx="5"/>
  <text x="500" y="660" class="title-text" text-anchor="middle">Redis</text>
  <text x="500" y="685" class="subtitle-text" text-anchor="middle">(Cache)</text>
  <text x="500" y="710" class="small-text" text-anchor="middle">Session Storage</text>
  <text x="500" y="730" class="small-text" text-anchor="middle">In-Memory Cache</text>

  <rect x="700" y="630" width="200" height="120" class="storage-box" rx="5"/>
  <text x="800" y="660" class="title-text" text-anchor="middle">AWS S3</text>
  <text x="800" y="685" class="subtitle-text" text-anchor="middle">(Object Storage)</text>
  <text x="800" y="710" class="small-text" text-anchor="middle">Images and Documents</text>
  <text x="800" y="730" class="small-text" text-anchor="middle">Static Assets</text>

  <rect x="100" y="800" width="20" height="20" class="cdn-box"/>
  <text x="125" y="815" class="small-text">CDN/DDoS Protection</text>
  
  <rect x="300" y="800" width="20" height="20" class="lb-box"/>
  <text x="325" y="815" class="small-text">Load Balancer</text>
  
  <rect x="500" y="800" width="20" height="20" class="server-box"/>
  <text x="525" y="815" class="small-text">Application Servers</text>
  
  <rect x="700" y="800" width="20" height="20" class="storage-box"/>
  <text x="725" y="815" class="small-text">Data Storage Layer</text>

  <text x="500" y="860" class="small-text" text-anchor="middle" style="font-style: italic; fill: #388e3c;">Horizontal Scaling - 24/7 High Availability - Auto-Recovery</text>
</svg>